<svg id="Final_LOGO" data-name="Final LOGO" xmlns="http://www.w3.org/2000/svg" xmlns:xlink="http://www.w3.org/1999/xlink" viewBox="0 0 512 512"><defs><style>.cls-1{fill:url(#linear-gradient);}.cls-2{fill:#fff;}.cls-3{fill:#ee292e;}</style><linearGradient id="linear-gradient" x1="468.93" y1="462.2" x2="214.25" y2="207.52" gradientUnits="userSpaceOnUse"><stop offset="0" stop-color="#ee292e"/><stop offset="1" stop-color="#f68524"/></linearGradient></defs><path class="cls-1" d="M453.8,353.1c11.2,14.7,28.1,39,52.7,78.8-1.6-1-51.7-30.3-127-35.5-36.4,14-78.6,22-123.5,22C117.6,418.4,5.4,342.7,5.4,249.3c0-45.5,26.6-86.9,69.9-117.2l1.3,2.3a35.5,35.5,0,0,0,65.7-18.6,34.5,34.5,0,0,0-3.8-15.9c35-12.6,75-19.8,117.5-19.8,138.4,0,250.6,75.8,250.6,169.2C506.6,288.4,486.9,324.4,453.8,353.1Z"/><path class="cls-2" d="M388.2,140.3a15.1,15.1,0,0,1-7.7,19.7l-17.1,7.5h0l-11.9-27.3,17-7.4A14.9,14.9,0,0,1,388.2,140.3Z"/><path class="cls-2" d="M312.6,157.2l11.9,27.3L138.9,265.9a21,21,0,0,0-5.2,3.3,19.7,19.7,0,0,0-4.9,22.4l8.4,18.9a19.3,19.3,0,0,0,19.7,11.6L169.1,350a49.4,49.4,0,0,1-59.3-27.5l-8.3-18.9a49.4,49.4,0,0,1,20-62.2c1.7-1,3.5-1.9,5.4-2.8Z"/><path class="cls-2" d="M424.1,222.3a14.9,14.9,0,0,1-7.7,19.6L208.2,333.2l-12-27.3,208.2-91.3A14.9,14.9,0,0,1,424.1,222.3Z"/><path class="cls-2" d="M388.2,140.3a15.1,15.1,0,0,1-7.7,19.7l-17.1,7.5h0l-11.9-27.3,17-7.4A14.9,14.9,0,0,1,388.2,140.3Z"/><path class="cls-2" d="M345.7,142.7h0L357.6,170h0a44.5,44.5,0,0,1,2.3,5.9c7,22.2-7.5,28.8-7.5,28.8s15-5.2,26.3,14.3l-28.3,12.4a15,15,0,0,0-15.5-2.3l-150.4,66,24,54.6,150-65.8a15.3,15.3,0,0,0,9.1-13.7l28.1-12.3a45,45,0,0,1-25.3,53.3L193.2,389,141.7,271.6l27.3-12,3.6,8.2L322.4,202a15.2,15.2,0,0,0,9.2-13.7,15.5,15.5,0,0,0-1.3-6.3l-12-27.3a14.4,14.4,0,0,0-19.2-7.6l-150.5,66,3.3,7.6-27.3,12-15.3-34.9,177.8-78a44.6,44.6,0,0,1,34-.7,45.4,45.4,0,0,1,21.6,18A49.7,49.7,0,0,1,345.7,142.7Z"/><path class="cls-3" d="M135.8,115.8A29,29,0,0,1,82.1,131l-1.4-2.6a29.4,29.4,0,0,1-2.8-12.6,28.9,28.9,0,0,1,53.7-15l.8,1.3A28.7,28.7,0,0,1,135.8,115.8Z"/></svg>